<svg xmlns="http://www.w3.org/2000/svg" viewBox="0 0 90 90" preserveAspectRatio="xMidYMid meet"><defs><clipPath id="__lottie_element_2"><rect width="90" height="90" x="0" y="0"></rect></clipPath></defs><g clip-path="url(#__lottie_element_2)"><g transform="matrix(1,0,0,1,45,45)" opacity="1" style="display: block;"><g opacity="1" transform="matrix(1,0,0,1,0,0)"><path fill="rgb(254,44,85)" fill-opacity="1" d=" M0,-36 C19.881999969482422,-36 36,-19.881999969482422 36,0 C36,19.881999969482422 19.881999969482422,36 0,36 C-19.881999969482422,36 -36,19.881999969482422 -36,0 C-36,-19.881999969482422 -19.881999969482422,-36 0,-36z"></path></g></g><g transform="matrix(1,0,0,1,45,45)" opacity="1" style="display: block;"><g opacity="1" transform="matrix(0.8,0,0,0.8,0,-5)"><path stroke-linecap="round" stroke-linejoin="round" fill-opacity="0" stroke="rgb(255,255,255)" stroke-opacity="1" stroke-width="6" d=" M-20,0 L-5,15 L20,-10"></path></g></g></g></svg>